<svg xmlns="http://www.w3.org/2000/svg" viewBox="0 0 400 400" width="400" height="400">
<defs><linearGradient id="bg" x1="0" y1="0" x2="0" y2="1">
<stop offset="0" stop-color="#fff3e0"/><stop offset="1" stop-color="#ffcc80"/></linearGradient></defs>
<rect width="400" height="400" fill="url(#bg)"/><path d="M140 120 L155 320 q45 18 90 0 L260 120 Z" fill="#e9ecef" opacity=".85"/>
<path d="M148 165 L160 312 q40 15 80 0 L252 165 Z" fill="#fb8c00"/>
<rect x="132" y="106" width="136" height="18" rx="9" fill="#dee2e6"/>
<rect x="196" y="40" width="9" height="70" rx="4" fill="#adb5bd"/>
<g fill="#fff" opacity=".5"><rect x="168" y="190" width="28" height="28" rx="5"/>
<rect x="208" y="225" width="26" height="26" rx="5"/></g>
<circle cx="262" cy="128" r="26" fill="#ff9800"/><path d="M262 102 a26 26 0 0 1 0 52Z" fill="#ffb74d"/>
</svg>